<svg width="877" height="404" viewBox="0 0 877 404" fill="none" xmlns="http://www.w3.org/2000/svg">
<g clip-path="url(#clip0_2_12)">
<path d="M448.641 109.152C453.167 125.435 458.296 148.349 468.553 164.027C479.412 180.914 493.59 192.371 505.355 192.371C511.388 192.371 515.612 191.166 517.425 191.166C519.533 191.166 520.138 191.77 520.138 193.277C520.138 195.988 511.089 204.734 501.134 204.734C486.049 204.734 468.853 193.579 456.185 172.471C443.212 151.063 436.574 126.338 432.656 108.847C430.242 107.642 429.338 105.834 429.338 102.216C429.338 96.4845 437.181 95.2795 442.61 95.2795C466.14 95.2795 505.064 63.0164 505.064 41.3073C505.064 26.2297 494.203 19.2963 472.484 19.2963C418.483 19.2963 366.596 61.5095 366.596 87.7422C366.596 90.454 369.01 92.8668 369.01 95.8718C369.01 101.298 364.183 104.916 358.753 104.916C353.324 104.916 349.4 100.694 349.4 94.063C349.4 49.437 410.035 6.92184 476.405 6.92184C503.856 6.92184 520.448 17.1739 520.448 39.7859C520.428 67.8449 475.792 102.82 448.641 109.152ZM465.535 42.5152C465.535 45.2299 459.2 52.1633 455.278 55.7839C447.145 63.0193 433.559 79.3019 424.197 95.5844C401.272 135.071 398.253 161.016 398.253 176.091C398.253 179.41 398.253 184.221 392.824 184.221C388.601 184.221 381.362 180.603 381.362 173.969C381.362 168.542 385.283 135.063 409.417 91.6531C433.55 48.2437 451.046 33.7584 456.475 33.7584C461.312 33.7613 465.527 36.4847 465.527 42.5152H465.535Z" fill="white"/>
<path d="M576.849 116.39C579.565 116.39 581.677 117.897 581.677 120.911C581.677 124.23 580.166 126.341 576.547 130.864C562.368 148.352 537.933 174.288 504.451 174.288C494.497 174.288 486.049 166.449 486.049 153.183C486.049 151.371 484.539 150.468 484.539 147.152C484.539 144.136 487.255 140.518 490.273 139.603C501.735 112.767 522.552 99.5011 538.238 99.5011C544.573 99.5011 551.51 104.327 551.51 110.958C551.51 126.637 526.171 144.429 506.261 148.953C502.34 149.856 501.131 151.966 501.131 154.077C501.131 156.49 503.847 162.207 509.578 162.207C534.92 162.207 555.132 138.979 565.991 125.722C569.61 121.213 573.531 116.39 576.849 116.39ZM505.352 138.099C516.213 135.989 536.724 121.213 536.724 116.088C536.724 114.28 536.12 113.072 534.31 113.072C527.074 113.072 511.083 129.052 505.352 138.099Z" fill="white"/>
<path d="M660.107 12.9668C660.107 36.775 634.765 78.6979 588.006 115.168C585.595 119.39 582.275 131.137 581.973 135.37C598.867 115.168 618.176 97.9826 635.37 97.9826C643.213 97.9826 648.343 103.711 648.343 112.456C648.343 137.783 625.104 172.157 602.185 172.157C591.024 172.157 588.308 167.032 588.308 161.603C588.308 157.985 591.629 154.054 596.442 154.054C599.158 154.054 601.874 157.071 604.575 157.071C615.739 157.071 632.63 131.439 632.63 117.267C632.63 114.253 629.917 112.445 627.201 112.445C621.47 112.445 608.497 124.204 593.717 140.486C587.983 146.819 581.647 157.974 581.647 162.497C581.647 167.622 575.013 173.652 571.393 173.652C567.469 173.652 564.152 171.843 564.152 161.292C564.152 123.902 579.547 81.3865 597.639 47.9156C615.437 15.3534 630.519 -0.026123 647.715 -0.026123C654.977 7.96243e-06 660.107 6.33242 660.107 12.9668ZM611.236 51.2603C603.892 65.5194 597.443 80.2219 591.928 95.2824C624.508 71.1606 646.539 27.1385 646.539 17.4874C646.539 15.3795 645.33 13.8698 642.614 13.8698C638.388 13.8698 624.508 25.3413 611.236 51.2603V51.2603Z" fill="white"/>
<path d="M736.728 116.39C739.444 116.39 741.556 117.897 741.556 120.911C741.556 124.23 740.049 126.341 736.426 130.864C722.248 148.352 697.815 174.282 664.328 174.282C654.373 174.282 645.926 166.443 645.926 153.177C645.926 151.365 644.418 150.462 644.418 147.147C644.418 144.13 647.131 140.512 650.15 139.598C661.612 112.761 682.428 99.4953 698.114 99.4953C704.45 99.4953 711.389 104.321 711.389 110.952C711.389 126.631 686.048 144.423 666.138 148.947C662.216 149.85 661.011 151.961 661.011 154.071C661.011 156.484 663.724 162.201 669.458 162.201C694.797 162.201 715.009 138.973 725.87 125.716C729.489 121.213 733.411 116.39 736.728 116.39ZM665.234 138.099C676.093 135.989 696.607 121.213 696.607 116.088C696.607 114.28 696.002 113.072 694.193 113.072C686.954 113.072 670.966 129.052 665.234 138.099Z" fill="white"/>
<path d="M800.681 116.39C803.394 116.39 805.506 117.897 805.506 120.911C805.506 124.23 803.998 126.341 800.379 130.864C786.201 148.352 756.937 173.379 731.296 173.379C724.659 173.379 712.894 168.252 712.894 153.778C712.894 134.18 741.251 99.504 765.082 99.504C772.324 99.504 779.865 105.836 779.865 112.77C779.865 122.119 770.212 130.562 763.888 130.562C761.172 130.562 758.456 128.753 758.456 124.532C758.456 121.817 760.269 119.706 762.079 118.501C763.586 117.595 765.094 116.39 765.094 114.881C765.094 114.59 764.493 113.978 763.586 113.978C753.027 113.978 729.196 136.593 729.196 152.884C729.196 156.804 731.61 160.433 735.229 160.433C754.837 160.433 779.272 139.627 789.84 125.757C793.439 121.213 797.361 116.39 800.681 116.39Z" fill="white"/>
<path d="M872.172 143.221C874.888 143.221 877 144.731 877 147.745C877 151.063 873.381 154.681 868.553 159.205C860.419 166.754 851.057 170.662 844.117 170.662C834.162 170.662 829.337 163.725 829.337 155.273C829.337 151.955 829.628 148.941 829.939 144.719C821.192 153.462 800.678 173.966 787.101 173.966C783.18 173.966 776.844 168.539 776.844 160.7C776.844 129.633 811.839 99.4895 834.767 99.4895C839.591 99.4895 844.117 102.506 847.135 106.124C848.039 106.124 851.359 100.093 855.882 100.093C861.616 100.093 864.933 103.409 864.933 107.642C864.933 112.767 854.072 125.734 850.453 133.573C847.437 139.603 845.024 146.238 845.024 150.459C845.024 153.473 846.229 156.792 849.848 156.792C852.867 156.792 857.09 154.681 861.616 150.761C865.837 146.845 868.855 143.221 872.172 143.221ZM793.134 155.285C793.134 156.792 794.343 157.695 795.85 157.695C800.376 157.695 837.48 125.432 837.48 119.703C837.48 116.388 834.767 113.673 830.845 113.673C818.778 113.676 793.134 141.415 793.134 155.288V155.285Z" fill="white"/>
<path d="M524.73 279.471C474.049 278.867 435.133 250.826 435.133 218.862C435.133 208.311 437.547 204.992 443.883 204.992C449.916 204.992 451.435 209.818 451.435 218.862C451.435 243.286 484.62 265.3 531.681 265.3C558.83 216.452 582.06 181.474 612.529 181.474C626.707 181.474 637.266 189.313 637.266 204.391C637.266 235.458 604.082 269.82 543.15 278.867C533.497 297.865 521.729 317.773 521.729 317.773C543.15 331.341 555.518 350.037 555.518 371.444C555.518 376.873 551.295 381.696 546.165 381.696C540.132 381.696 537.116 377.474 537.116 372.652C537.116 368.43 538.322 365.103 538.322 361.494C538.322 350.638 528.669 337.976 513.584 329.532C485.227 374.158 452.646 404.009 409.812 404.009C378.439 404.009 356.415 388.33 356.415 357.574C356.415 327.724 386.884 297.873 437.867 297.873C464.414 297.873 489.451 302.696 507.551 310.535C510.842 305.704 518.395 292.435 524.73 279.471ZM371.18 356.961C371.18 376.864 385.359 389.526 410.105 389.526C445.402 389.526 475.871 358.773 500.004 322.285C483.714 315.654 461.079 311.734 436.652 311.734C393.504 311.734 371.18 337.363 371.18 356.961ZM612.221 195.948C593.215 195.948 573.607 224.892 551.283 263.189C593.215 255.059 621.871 226.704 621.871 206.502C621.868 199.867 617.644 195.948 612.221 195.948Z" fill="white"/>
<path d="M658.367 290.928C661.08 290.928 663.192 292.435 663.192 295.452C663.192 298.768 661.685 300.878 658.065 305.402C643.884 322.587 616.735 347.624 601.351 347.624C595.016 347.624 588.076 342.197 588.076 331.655C588.076 318.386 603.472 288.838 605.877 284.329C609.496 278.298 612.512 273.476 616.735 273.476C620.959 273.476 624.288 275.885 624.288 279.805C624.288 284.027 622.176 286.138 620.366 288.852C611.62 303.024 603.173 323.83 603.173 329.861C603.173 331.971 604.68 334.683 607.396 334.683C615.53 334.683 637.261 314.182 647.518 300.309C651.126 295.754 655.047 290.928 658.367 290.928ZM655.047 228.504C655.047 236.343 646.914 241.166 642.98 241.166C638.155 241.166 636.343 234.837 636.343 230.313C636.343 225.487 641.171 219.457 647.808 219.457C651.436 219.466 655.047 221.275 655.047 228.513V228.504Z" fill="white"/>
<path d="M798.34 290.928C801.053 290.928 803.165 292.435 803.165 295.452C803.165 298.768 801.657 300.878 798.038 305.402C788.385 317.765 764.252 347.624 747.659 347.624C738.608 347.624 733.481 341.291 733.481 330.435C733.481 318.374 740.118 302.394 740.118 295.46C740.118 294.253 739.212 293.048 738.006 293.048C729.257 293.048 705.124 324.115 700.598 335.261C697.58 342.499 694.867 347.322 690.945 347.322C687.326 347.322 682.812 344.308 682.812 338.577C682.812 336.466 685.525 330.447 687.939 323.502C691.558 311.743 696.386 297.571 696.386 293.048C696.386 290.031 694.576 289.43 692.162 289.43C688.845 289.43 672.857 299.078 662.902 313.552C657.168 321.681 652.944 331.643 649.627 338.577C645.705 346.416 645.705 350.939 641.179 350.939C638.164 350.939 634.243 347.624 634.243 342.81C634.243 336.477 643.291 316.879 656.566 275.572C658.98 268.023 662.6 263.81 665.917 263.81C670.141 263.81 673.76 265.32 673.76 271.048C673.76 275.27 668.029 288.536 665.313 295.774C674.062 285.522 688.842 274.666 696.084 274.666C701.815 274.666 711.77 277.683 711.77 286.425C711.77 291.25 710.866 296.073 709.96 300.295C719.915 288.536 735 277.982 744.051 277.982C749.178 277.982 755.816 281.602 755.816 288.838C755.816 301.805 747.369 315.372 747.369 328.94C747.369 332.259 748.275 334.37 750.686 334.37C760.04 334.37 777.233 314.167 787.49 300.295C791.098 295.754 795.02 290.928 798.34 290.928Z" fill="white"/>
<path d="M869.831 317.765C872.547 317.765 874.659 319.272 874.659 322.285C874.659 325.604 871.039 329.222 866.211 333.745C858.078 341.294 848.716 345.202 841.776 345.202C831.821 345.202 826.993 338.269 826.993 329.814C826.993 326.495 827.284 323.482 827.597 319.26C818.848 328.005 798.334 348.509 784.76 348.509C780.838 348.509 774.503 343.08 774.503 335.241C774.503 304.174 809.497 274.03 832.425 274.03C837.25 274.03 841.776 277.047 844.794 280.665C845.697 280.665 849.015 274.634 853.54 274.634C859.272 274.634 862.592 277.95 862.592 282.183C862.592 287.311 851.731 300.274 848.111 308.114C845.093 314.147 842.682 320.779 842.682 325C842.682 328.017 843.888 331.333 847.507 331.333C850.525 331.333 854.749 329.222 859.272 325.302C863.49 321.382 866.513 317.765 869.831 317.765ZM790.793 329.826C790.793 331.333 792.002 332.238 793.509 332.238C798.035 332.238 835.138 299.972 835.138 294.244C835.138 290.928 832.425 288.213 828.504 288.213C816.431 288.213 790.793 315.956 790.793 329.826V329.826Z" fill="white"/>
<path d="M326.138 128.46C320.706 108.417 311.497 89.5952 299.004 73.0042C286.526 56.416 271.07 42.2924 253.424 31.3543C235.778 20.4139 216.238 12.8743 195.815 9.12553C175.408 5.36253 154.479 5.43539 134.099 9.34038C113.754 13.3345 94.3387 21.1057 76.8591 32.2515C59.4158 43.368 44.1859 57.6209 31.9416 74.2875C19.7097 90.9252 10.7223 109.717 5.44941 129.679C2.82029 139.62 1.13005 149.785 0.400833 160.041C-0.292149 170.28 -0.0538866 180.56 1.11258 190.756C3.4804 211.142 9.66486 230.9 19.3433 248.999C28.9792 267.024 41.8884 283.097 57.4111 296.398C72.9129 309.586 90.7384 319.77 109.974 326.429C119.531 329.739 129.384 332.125 139.397 333.554C144.399 334.221 149.416 334.744 154.45 334.953C156.963 335.148 159.481 335.107 162.003 335.13C162.993 335.13 163.969 335.13 164.948 335.13C165.332 357.196 165.701 379.263 166.651 401.311C166.682 402.033 166.991 402.715 167.513 403.215C168.036 403.715 168.731 403.994 169.454 403.994C170.176 403.993 170.871 403.714 171.393 403.214C171.916 402.715 172.225 402.033 172.257 401.311C173.271 377.709 173.622 354.107 174.055 330.505L174.229 312.135L174.282 293.768L174.055 257.03C173.936 246.346 173.796 235.693 173.59 225.008C173.573 224.137 173.57 223.266 173.541 222.395C193.645 222.105 209.459 216.879 220.707 206.839V206.929C251.611 206.929 264.064 179.055 268.965 160.07C269.255 160.07 269.56 160.116 269.862 160.116C274.48 160.116 278.908 158.282 282.172 155.018C285.437 151.754 287.271 147.328 287.271 142.713C287.271 138.098 285.437 133.672 282.172 130.409C278.907 127.146 274.479 125.313 269.862 125.313C265.245 125.313 260.817 127.146 257.552 130.409C254.286 133.672 252.452 138.098 252.451 142.713C252.453 146.433 253.646 150.055 255.856 153.048C258.066 156.041 261.177 158.248 264.732 159.347C260.375 176.138 249.845 199.821 225.137 202.367C225.625 201.813 226.118 201.264 226.589 200.683C230.455 195.812 233.503 190.345 235.614 184.497C236.59 184.451 237.558 184.302 238.502 184.052C241.485 183.238 244.118 181.468 245.997 179.013C247.875 176.558 248.896 173.555 248.901 170.464C248.899 168.196 248.35 165.962 247.301 163.951C246.251 161.941 244.731 160.213 242.871 158.914C242.076 158.372 241.229 157.913 240.341 157.544C240.429 152.316 240.131 147.089 239.449 141.906C242.93 140.901 245.99 138.793 248.168 135.9C250.347 133.006 251.526 129.483 251.527 125.861C251.527 121.429 249.765 117.178 246.63 114.044C243.494 110.91 239.241 109.149 234.807 109.149C230.372 109.149 226.119 110.91 222.984 114.044C219.848 117.178 218.087 121.429 218.087 125.861C218.087 130.294 219.848 134.545 222.984 137.679C226.119 140.813 230.372 142.574 234.807 142.574C234.92 142.574 235.028 142.574 235.141 142.556C235.717 147.17 235.987 151.817 235.948 156.467C235.568 156.435 235.196 156.377 234.807 156.377C234.316 156.373 233.825 156.397 233.337 156.446C229.874 156.818 226.671 158.454 224.341 161.041C222.011 163.628 220.719 166.983 220.713 170.464C220.717 173.117 221.468 175.714 222.879 177.961C224.29 180.208 226.304 182.012 228.692 183.17C228.829 183.222 228.951 183.274 229.073 183.326C229.736 183.624 230.423 183.867 231.126 184.052C229.222 189.078 226.551 193.779 223.208 197.989C212.75 211.008 196.004 217.732 173.474 218.069V217.927L173.323 209.007C196.716 208.026 204.033 195.826 206.31 188.794C208.627 188.515 210.762 187.398 212.311 185.654C213.86 183.909 214.716 181.658 214.717 179.325C214.716 176.796 213.71 174.37 211.92 172.581C210.13 170.792 207.703 169.788 205.172 169.788C202.641 169.788 200.213 170.792 198.423 172.581C196.633 174.37 195.627 176.796 195.626 179.325C195.627 181.295 196.237 183.215 197.374 184.824C198.512 186.432 200.119 187.648 201.976 188.306C201.229 190.373 200.164 192.31 198.819 194.049C193.825 200.518 185.018 204.164 173.256 204.687L173.134 197.452V196.9H173.091L173.067 194.255C173.954 194.057 174.817 193.765 175.641 193.384C175.952 193.248 176.245 193.094 176.539 192.937C177.963 192.163 179.241 191.146 180.315 189.932C182.56 187.399 183.8 184.132 183.801 180.748C183.805 179.92 183.73 179.094 183.577 178.28C183.459 177.636 183.292 177.003 183.077 176.384C189.355 171.672 193.244 163.664 195.519 157.172H195.641C197.627 157.173 199.594 156.782 201.429 156.022C203.264 155.263 204.931 154.15 206.336 152.746C207.741 151.342 208.855 149.676 209.615 147.842C210.375 146.008 210.766 144.042 210.766 142.057C210.766 138.047 209.173 134.202 206.336 131.367C203.5 128.531 199.652 126.939 195.641 126.939C193.655 126.939 191.688 127.33 189.853 128.09C188.018 128.849 186.351 129.963 184.947 131.367C183.542 132.771 182.428 134.437 181.669 136.272C180.909 138.106 180.518 140.072 180.518 142.057C180.518 145.283 181.55 148.424 183.464 151.022C185.377 153.619 188.071 155.538 191.153 156.496C189.137 162.059 185.91 168.568 181.044 172.502C180.922 172.334 180.82 172.151 180.693 171.988H180.675C180.107 171.283 179.47 170.636 178.775 170.055C177.758 169.206 176.623 168.508 175.406 167.985C174.571 167.632 173.706 167.357 172.82 167.163L172.745 159.216L172.661 146.784L172.574 133.405L172.556 130.818C173.428 130.696 174.293 130.528 175.147 130.315C180.024 129.055 184.345 126.211 187.43 122.23C190.515 118.249 192.19 113.357 192.193 108.322C192.194 102.299 189.803 96.5232 185.544 92.2632C181.285 88.0032 175.508 85.6083 169.483 85.6052C166.498 85.6044 163.542 86.1915 160.784 87.3328C158.026 88.4741 155.52 90.1473 153.409 92.2568C151.298 94.3664 149.624 96.8709 148.482 99.6274C147.34 102.384 146.752 105.338 146.752 108.322C146.752 113.358 148.426 118.252 151.513 122.233C154.599 126.215 158.921 129.058 163.801 130.315C164.654 130.528 165.518 130.696 166.389 130.818L166.375 133.405L166.287 146.784L166.253 152.01L166.235 154.6C165.369 154.601 164.504 154.55 163.644 154.446C155.095 153.479 150.465 148.593 147.958 143.793C147.818 143.523 147.694 143.259 147.566 142.995C149.548 140.982 150.657 138.27 150.654 135.446C150.654 132.584 149.516 129.839 147.492 127.816C145.468 125.792 142.722 124.654 139.859 124.654C136.996 124.654 134.249 125.791 132.224 127.815C130.199 129.838 129.062 132.583 129.062 135.446C129.062 136.863 129.341 138.266 129.884 139.575C130.427 140.884 131.222 142.074 132.225 143.076C133.227 144.078 134.417 144.872 135.727 145.414C137.037 145.957 138.441 146.235 139.859 146.235C140.993 146.235 142.119 146.056 143.197 145.704C146.285 151.998 152.225 158.624 163.606 159.64C164.437 159.727 165.301 159.78 166.197 159.797L166.18 162.369L166.122 167.401C165.226 167.65 164.359 167.995 163.537 168.429C161.997 169.221 160.618 170.292 159.47 171.588C158.794 172.352 158.209 173.191 157.727 174.091C156.993 175.407 156.485 176.837 156.222 178.321C156.084 179.125 156.015 179.939 156.016 180.754V180.89C156.04 183.364 156.726 185.787 158.003 187.906C159.28 190.025 161.102 191.764 163.278 192.943C164.084 193.385 164.932 193.744 165.811 194.014L165.715 202.402L165.68 205.015C164.809 204.98 163.937 204.928 163.089 204.841C151.206 203.807 141.742 199.748 134.866 192.739C129.547 187.319 126.523 180.864 124.885 175.287C124.85 175.2 124.832 175.098 124.798 174.976C124.749 174.846 124.708 174.713 124.676 174.578C124.677 174.569 124.676 174.559 124.673 174.55C124.67 174.541 124.665 174.533 124.658 174.526H124.676C124.623 174.334 124.571 174.143 124.522 173.945C127.468 173.097 130.059 171.313 131.904 168.865C133.748 166.416 134.746 163.434 134.747 160.369C134.747 156.619 133.256 153.022 130.603 150.371C127.95 147.719 124.352 146.229 120.6 146.229C117.085 146.229 113.696 147.538 111.094 149.9C108.491 152.261 106.862 155.507 106.523 159.004C102.096 157.721 98.5234 155.636 95.909 152.698C93.6917 150.145 92.1487 147.078 91.421 143.776C94.2697 143.369 96.8761 141.95 98.7622 139.777C100.648 137.605 101.688 134.826 101.69 131.95C101.69 128.778 100.429 125.736 98.1851 123.494C95.9412 121.251 92.8979 119.991 89.7246 119.991C88.1533 119.991 86.5975 120.3 85.1458 120.901C83.6941 121.502 82.375 122.383 81.264 123.494C80.1529 124.604 79.2716 125.922 78.6703 127.373C78.069 128.824 77.7596 130.379 77.7596 131.95C77.7633 134.636 78.6718 137.243 80.3386 139.349C82.0055 141.456 84.3335 142.941 86.9476 143.564C87.6389 147.213 89.1988 151.618 92.6439 155.511C96.0891 159.405 100.882 162.128 106.837 163.566C107.546 166.593 109.235 169.301 111.64 171.272C114.046 173.243 117.035 174.365 120.144 174.465C121.814 180.949 125.138 188.942 131.74 195.695C138.581 202.663 147.612 207.001 158.755 208.624H158.79L159.661 208.659L159.781 208.781C160.333 208.851 160.887 208.917 161.439 208.97C161.991 209.022 162.476 209.092 163.011 209.126C163.856 209.211 164.722 209.263 165.584 209.298L165.55 211.888C163.231 211.787 160.92 211.568 158.624 211.231C158.6 211.234 158.575 211.228 158.555 211.214C121.082 209.835 105.135 201.22 98.3635 193.901C97.8697 193.367 97.4399 192.844 97.0419 192.327C99.068 191.278 100.767 189.692 101.953 187.743C103.138 185.794 103.766 183.558 103.767 181.277C103.767 179.641 103.444 178.022 102.818 176.512C102.192 175.001 101.274 173.628 100.117 172.472C98.9604 171.316 97.5868 170.399 96.0753 169.774C94.5637 169.148 92.9438 168.826 91.3078 168.827C88.0043 168.827 84.8361 170.138 82.5001 172.473C80.1642 174.808 78.8518 177.975 78.8518 181.277C78.8514 182.912 79.1733 184.531 79.7991 186.042C80.4249 187.553 81.3423 188.926 82.499 190.082C83.6557 191.238 85.0289 192.156 86.5404 192.782C88.0518 193.407 89.6718 193.729 91.3078 193.729C91.764 193.728 92.2197 193.702 92.673 193.651C93.3704 194.685 94.1402 195.667 94.9766 196.592C102.645 205.085 121.094 215.151 165.48 215.703L165.445 218.293L165.41 220.244C165.396 220.97 165.378 221.695 165.378 222.436C165.343 223.307 165.326 224.195 165.326 225.049C121.126 229.883 88.8299 223.649 69.2774 206.577C63.3483 201.445 58.6234 195.07 55.4387 187.905C58.969 186.646 62.0237 184.327 64.1843 181.266C66.3449 178.204 67.506 174.55 67.5084 170.804C67.5076 165.982 65.5908 161.359 62.1796 157.95C58.7684 154.541 54.1421 152.625 49.3183 152.625C44.4947 152.625 39.8688 154.541 36.458 157.95C33.0472 161.359 31.1311 165.983 31.1311 170.804C31.1311 175.625 33.0472 180.249 36.4579 183.659C39.8685 187.069 44.4945 188.984 49.3183 188.985C49.9196 188.985 50.5151 188.95 51.1019 188.895C53.8383 195.341 58.4715 202.832 66.3407 209.754C82.4219 223.856 106.462 230.949 138.09 230.949C147.162 230.924 156.225 230.411 165.242 229.413C165.224 230.284 165.207 231.155 165.207 232.026C165.053 240.365 164.966 248.686 164.879 256.996L164.638 293.733L164.69 312.1L164.879 330.47C164.879 330.499 164.879 330.528 164.879 330.557C146.784 329.977 128.949 326.745 112.179 320.331C94.0155 313.413 77.3006 303.173 62.8898 290.136C48.496 277.232 36.6164 261.777 27.8516 244.551C19.1232 227.392 13.7033 208.744 11.8749 189.58C10.9905 180.044 10.9729 170.446 11.8226 160.906C12.6337 151.384 14.318 141.957 16.8539 132.743C21.9441 114.304 30.4633 96.9892 41.9661 81.703C53.4403 66.4423 67.6472 53.4414 83.8656 43.3601C100.042 33.3098 117.956 26.3704 136.684 22.8995C155.385 19.3405 174.586 19.2991 193.302 22.7775C212.006 26.2363 229.895 33.1663 246.046 43.2091C262.2 53.2621 276.343 66.2319 287.75 81.4562C299.136 96.6811 307.635 113.862 312.828 132.147C317.999 150.476 319.687 169.611 317.804 188.561C315.919 207.457 310.675 226.059 302.057 243.042C293.389 260.087 281.709 275.425 267.579 288.315C254.468 299.977 239.564 309.454 223.44 316.383C222.224 316.912 221.256 317.887 220.737 319.108C220.218 320.328 220.186 321.701 220.649 322.944C220.891 323.597 221.261 324.194 221.737 324.701C222.214 325.209 222.787 325.616 223.422 325.899C224.058 326.182 224.744 326.335 225.44 326.35C226.136 326.365 226.828 326.24 227.475 325.984C235.318 322.834 243.054 319.33 250.307 314.934C252.506 313.613 254.766 312.382 256.898 310.956L263.216 306.555L266.371 304.342L269.357 301.912L275.329 297.04C290.831 283.412 303.731 267.087 313.403 248.857C332.421 212.213 337.153 168.391 326.138 128.46Z" fill="white"/>
</g>
<defs>
<clipPath id="clip0_2_12">
<rect width="877" height="404" fill="white"/>
</clipPath>
</defs>
</svg>
