<svg width="44" height="87" viewBox="0 0 44 87" fill="none" xmlns="http://www.w3.org/2000/svg">
<path d="M43.9903 19.503C43.9208 16.9835 43.368 14.5007 42.3618 12.1894C41.3572 9.87953 39.9333 7.77542 38.162 5.98346C36.39 4.19165 34.2966 2.74876 31.9908 1.73004C29.6876 0.712747 27.2153 0.13196 24.6997 0.0172614C22.1776 -0.0868966 19.6582 0.281025 17.2714 1.10204C14.8969 1.91718 12.6955 3.16797 10.7803 4.79021C8.86414 6.40535 7.27055 8.36758 6.08332 10.5737C5.48855 11.6661 5.00059 12.8133 4.62624 13.9993C4.25277 15.1888 3.98883 16.41 3.8377 17.6475C3.53788 20.1198 3.70848 22.6264 4.34053 25.0353C4.9648 27.4348 6.03263 29.6965 7.48898 31.7037C8.94495 33.7001 10.7607 35.4078 12.843 36.7393C13.8782 37.4005 14.9747 37.9607 16.1172 38.4121C16.6886 38.6291 17.26 38.8346 17.8314 38.9831C18.1228 39.0801 18.4028 39.1486 18.7171 39.2228L19.0657 39.3028C18.4942 41.9176 17.9228 44.5325 17.3914 47.1588C17.3741 47.2449 17.3905 47.3344 17.4372 47.4087C17.484 47.4831 17.5576 47.5367 17.6428 47.5584C17.7284 47.5793 17.8188 47.5659 17.8946 47.5211C17.9704 47.4763 18.0257 47.4036 18.0486 47.3186C18.8428 44.5667 19.5513 41.7863 20.2713 39.0173L20.8142 36.8535L21.3398 34.6897L22.4027 30.3621C22.6884 29.1022 22.9722 27.8386 23.2541 26.5711L23.3226 26.2628C25.7054 26.7995 27.7167 26.6282 29.3281 25.7661C32.9737 26.6453 35.2364 23.705 36.3507 21.604L36.4592 21.6383C37.004 21.7689 37.5784 21.6781 38.0562 21.3859C38.5341 21.0936 38.8763 20.6238 39.0077 20.0797C39.0723 19.8097 39.0831 19.5298 39.0394 19.2557C38.9957 18.9816 38.8983 18.7188 38.7529 18.4823C38.6075 18.2459 38.4169 18.0403 38.192 17.8775C37.9671 17.7147 37.7122 17.5977 37.4421 17.5333C36.8973 17.4027 36.3229 17.4935 35.845 17.7857C35.3672 18.078 35.025 18.5478 34.8936 19.0919C34.7924 19.5269 34.8326 19.9828 35.0083 20.3935C35.184 20.8041 35.486 21.1482 35.8707 21.3756C34.8822 23.2369 32.9679 25.7319 29.9795 25.3322L30.1966 25.178C30.7919 24.7127 31.3072 24.1535 31.7223 23.5223C31.84 23.5362 31.9589 23.5362 32.0765 23.5223C32.4513 23.5105 32.8118 23.3762 33.1028 23.14C33.3938 22.9039 33.5994 22.5789 33.6879 22.2149C33.7524 21.947 33.7513 21.6675 33.6847 21.4002C33.618 21.1328 33.4878 20.8855 33.3051 20.6791C33.2243 20.5938 33.1363 20.5155 33.0422 20.4451C33.2012 19.8318 33.3158 19.2079 33.3851 18.5781C33.8243 18.5571 34.2449 18.3944 34.5838 18.1144C34.9227 17.8345 35.1617 17.4523 35.265 17.0252C35.3278 16.7661 35.3388 16.4972 35.2972 16.2338C35.2556 15.9705 35.1622 15.718 35.0226 15.4909C34.8829 15.2638 34.6996 15.0665 34.4833 14.9105C34.267 14.7544 34.0219 14.6427 33.7622 14.5816C33.2394 14.4562 32.6881 14.5433 32.2295 14.8238C31.7709 15.1043 31.4426 15.5552 31.3166 16.0775C31.191 16.5998 31.2782 17.1506 31.5589 17.6088C31.8397 18.067 32.291 18.3951 32.8137 18.521H32.8537C32.7921 19.0809 32.6928 19.6359 32.5565 20.1824L32.4251 20.1425C32.3673 20.1256 32.308 20.1141 32.248 20.1082C31.8291 20.0542 31.405 20.1566 31.057 20.3957C30.709 20.6349 30.4616 20.994 30.3623 21.4042C30.2885 21.7146 30.3029 22.0393 30.4038 22.3419C30.5048 22.6446 30.6883 22.913 30.9337 23.117H30.9737C31.0422 23.173 31.117 23.2209 31.1966 23.2597C30.8281 23.7988 30.3791 24.2782 29.8652 24.6813C28.2596 25.9203 26.0939 26.2457 23.4255 25.6462L23.6655 24.59C26.4539 25.1324 27.6653 23.9049 28.1281 23.1341C28.4096 23.1713 28.6949 23.1024 28.9283 22.9409C29.1617 22.7794 29.3267 22.5369 29.3909 22.2606C29.4291 22.1125 29.4371 21.9581 29.4144 21.8068C29.3917 21.6555 29.3388 21.5103 29.2588 21.3799C29.1789 21.2494 29.0735 21.1363 28.949 21.0473C28.8244 20.9583 28.6832 20.8953 28.5338 20.8618C28.3859 20.8246 28.2321 20.8173 28.0813 20.8404C27.9306 20.8635 27.7859 20.9165 27.656 20.9963C27.5261 21.0761 27.4134 21.1811 27.3248 21.3051C27.2361 21.4291 27.1731 21.5696 27.1396 21.7182C27.0814 21.9501 27.0975 22.1944 27.1857 22.4167C27.2738 22.639 27.4296 22.828 27.631 22.9571C27.4834 23.1747 27.3021 23.3674 27.0939 23.5281C26.3225 24.1504 25.1797 24.3331 23.7797 24.059L23.9683 23.2026V23.1341L24.0369 22.8258C24.1464 22.826 24.2555 22.8145 24.3626 22.7916L24.4826 22.763C24.6728 22.7131 24.8527 22.63 25.014 22.5175C25.348 22.2789 25.5853 21.9284 25.6825 21.5298C25.7061 21.4323 25.7214 21.333 25.7282 21.2329C25.734 21.155 25.734 21.0768 25.7282 20.9989C26.5662 20.5615 27.2634 19.8966 27.7396 19.0805V19.0805C28.2124 19.1939 28.7109 19.1151 29.1256 18.8614C29.5402 18.6076 29.8371 18.1998 29.9509 17.7274C30.0645 17.2543 29.9858 16.7555 29.732 16.3402C29.4781 15.925 29.0699 15.6273 28.5967 15.5122C28.3543 15.4611 28.104 15.4593 27.8609 15.5071C27.6179 15.5549 27.3869 15.6513 27.182 15.7905C26.9771 15.9296 26.8025 16.1087 26.6685 16.317C26.5346 16.5252 26.4441 16.7583 26.4025 17.0024C26.3109 17.3828 26.3435 17.7826 26.4957 18.1432C26.6478 18.5038 26.9115 18.8063 27.2482 19.0063C26.8483 19.6733 26.281 20.2243 25.6025 20.6049L25.574 20.5364C25.5279 20.4368 25.4703 20.343 25.4025 20.2567C25.3097 20.1248 25.1958 20.0091 25.0654 19.9141C24.9763 19.8503 24.8827 19.7931 24.7854 19.7428L24.9968 18.8065L25.3397 17.3335L25.7111 15.752L25.7797 15.4494C25.8863 15.4551 25.9931 15.4551 26.0997 15.4494C26.7119 15.4398 27.3035 15.227 27.7814 14.8446C28.2593 14.4622 28.5964 13.9318 28.7395 13.337C28.9097 12.6261 28.7904 11.8768 28.4079 11.2537C28.0254 10.6307 27.411 10.1848 26.6996 10.0142C25.9881 9.84419 25.2382 9.96338 24.6146 10.3456C23.991 10.7278 23.5448 11.3417 23.374 12.0524C23.2316 12.6466 23.2907 13.2712 23.542 13.8281C23.7933 14.3851 24.2226 14.8429 24.7626 15.1297L25.054 15.261L24.9797 15.5693L24.5911 17.1451L24.4369 17.756L24.3626 18.0643L24.0597 17.9729C23.6758 17.845 23.3315 17.62 23.0601 17.3199C22.7888 17.0198 22.5997 16.6548 22.5112 16.2602C22.5112 16.2202 22.5112 16.1859 22.5112 16.1517C22.8001 15.9714 23.0057 15.6839 23.0826 15.3524C23.1235 15.1852 23.1309 15.0115 23.1045 14.8414C23.078 14.6714 23.0182 14.5082 22.9285 14.3613C22.8388 14.2143 22.7209 14.0865 22.5816 13.9852C22.4424 13.8839 22.2845 13.8111 22.117 13.7709C21.7791 13.69 21.4229 13.7461 21.1262 13.9269C20.8296 14.1077 20.6167 14.3986 20.5342 14.7358C20.4534 15.0742 20.5103 15.4308 20.6924 15.7273C20.8746 16.0238 21.167 16.236 21.5055 16.3172C21.6384 16.3482 21.7751 16.3597 21.9112 16.3515C22.0153 16.8692 22.2579 17.3491 22.613 17.7401C22.9682 18.1311 23.4227 18.4188 23.9283 18.5724C24.0197 18.6067 24.1226 18.6352 24.2254 18.6637L24.1512 18.9663L24.0026 19.5373C23.8908 19.5405 23.7797 19.5558 23.6712 19.583C23.4674 19.6354 23.2742 19.7223 23.0998 19.8399C22.9993 19.911 22.9073 19.9934 22.8255 20.0854C22.7013 20.2197 22.6008 20.3742 22.5284 20.5421C22.4866 20.6338 22.4541 20.7295 22.4312 20.8276V20.8276C22.3635 21.12 22.3755 21.4251 22.466 21.7113C22.5564 21.9975 22.722 22.2542 22.9455 22.4547C23.0261 22.5325 23.1164 22.5997 23.2141 22.6546L22.9741 23.6822L22.8941 23.9905L22.5969 23.8935C21.3613 23.5424 20.2978 22.75 19.6085 21.6668C19.1916 20.9544 18.9562 20.1506 18.9228 19.326V19.2861C18.9228 19.2861 18.9228 19.2518 18.9228 19.2347C18.9228 19.2175 18.9228 19.2347 18.9228 19.2347C18.9228 19.2347 18.9228 19.189 18.9228 19.1662C19.2953 19.1503 19.6525 19.0135 19.9402 18.7765C20.2278 18.5396 20.4304 18.2154 20.517 17.853C20.5698 17.6341 20.5788 17.4069 20.5435 17.1845C20.5083 16.9621 20.4295 16.7488 20.3117 16.5568C20.1939 16.3648 20.0393 16.198 19.8569 16.0658C19.6745 15.9336 19.4677 15.8386 19.2485 15.7863C18.8339 15.6864 18.3968 15.7445 18.0228 15.9493C17.6487 16.1541 17.3645 16.4909 17.2257 16.8939C16.7628 16.6654 16.3774 16.3061 16.1172 15.8605C15.9279 15.4956 15.8317 15.0896 15.8372 14.6787C16.1848 14.7119 16.5327 14.6187 16.8172 14.4163C17.1016 14.2139 17.3034 13.9159 17.3857 13.5768C17.4308 13.3912 17.4387 13.1986 17.4091 13.0099C17.3795 12.8212 17.3128 12.6403 17.213 12.4774C17.1132 12.3146 16.9822 12.173 16.8275 12.0609C16.6728 11.9488 16.4974 11.8683 16.3115 11.824C15.9373 11.7364 15.5435 11.8 15.216 12.001C14.8885 12.202 14.6538 12.5242 14.563 12.8974C14.4865 13.2147 14.5193 13.5484 14.6562 13.8447C14.7931 14.141 15.026 14.3826 15.3172 14.5302C15.282 15.074 15.3966 15.617 15.6486 16.1003C15.9788 16.6899 16.4839 17.1626 17.0943 17.4534C17.0923 17.8306 17.215 18.1979 17.4433 18.4984C17.6717 18.7988 17.9929 19.0155 18.3571 19.1148C18.3572 20.117 18.6212 21.1015 19.1228 21.9694C19.782 23.0244 20.7757 23.8283 21.9455 24.2531V24.2531L22.0484 24.2817L22.237 24.3502L22.4198 24.413L22.7169 24.5101L22.6426 24.8126C22.3712 24.736 22.1041 24.6445 21.8427 24.5386V24.5386C17.46 23.3168 15.8258 21.8495 15.2315 20.7933C15.1858 20.7134 15.1515 20.6392 15.1172 20.5707C15.3899 20.5019 15.638 20.3587 15.8338 20.1571C16.0296 19.9554 16.1653 19.7032 16.2258 19.4288C16.2722 19.2342 16.2793 19.0322 16.2468 18.8348C16.2143 18.6374 16.1428 18.4484 16.0364 18.2788C15.93 18.1093 15.7909 17.9626 15.6272 17.8474C15.4636 17.7321 15.2785 17.6506 15.083 17.6075C14.8901 17.5608 14.6899 17.5525 14.4938 17.5831C14.2978 17.6138 14.1097 17.6828 13.9403 17.7862C13.771 17.8897 13.6238 18.0254 13.5071 18.1858C13.3903 18.3462 13.3064 18.528 13.2602 18.7209C13.2138 18.9155 13.2066 19.1174 13.2391 19.3149C13.2716 19.5123 13.3431 19.7013 13.4495 19.8708C13.5559 20.0403 13.695 20.187 13.8587 20.3023C14.0224 20.4175 14.2074 20.4991 14.403 20.5421L14.5687 20.5764C14.6194 20.7186 14.6825 20.8562 14.7573 20.9874C15.4201 22.2035 17.3114 23.9163 22.5341 25.2351L22.4598 25.5434L22.3969 25.7718C22.3969 25.8574 22.3512 25.9431 22.3341 26.0287C22.317 26.1144 22.277 26.2342 22.2541 26.337C16.9 25.6576 13.2602 24.0076 11.4374 21.4385C10.8834 20.6639 10.5069 19.777 10.3346 18.8407C10.7867 18.7931 11.2129 18.6067 11.5547 18.3072C11.8965 18.0076 12.1369 17.6096 12.2431 17.1679C12.3112 16.8864 12.3231 16.5942 12.2781 16.3081C12.2331 16.0219 12.132 15.7475 11.9808 15.5004C11.8296 15.2533 11.631 15.0384 11.3966 14.868C11.1622 14.6976 10.8964 14.5751 10.6146 14.5074C10.3328 14.4394 10.0404 14.4275 9.75398 14.4725C9.4676 14.5174 9.19291 14.6183 8.94561 14.7695C8.6983 14.9206 8.48324 15.1189 8.31271 15.3532C8.14219 15.5874 8.01955 15.8529 7.95182 16.1345C7.88371 16.4161 7.87182 16.7083 7.91682 16.9944C7.96182 17.2805 8.06284 17.555 8.21409 17.8021C8.36533 18.0492 8.56385 18.2641 8.79828 18.4345C9.03271 18.6049 9.29846 18.7274 9.58032 18.7951L9.79174 18.835C9.9734 19.8784 10.3874 20.8676 11.0031 21.7297C12.5002 23.8478 15.1344 25.3664 18.8714 26.2628C19.9422 26.5111 21.0256 26.7017 22.117 26.8337C22.0884 26.9422 22.0655 27.0393 22.0427 27.142C21.7855 28.124 21.5398 29.1003 21.2941 30.0823L20.2256 34.4099L19.7056 36.5795L19.2085 38.749C17.0948 38.1849 15.0902 37.2722 13.2773 36.0485C11.3299 34.7193 9.6478 33.0387 8.31751 31.0928C6.98141 29.1625 6.01289 27.0025 5.46049 24.7213C4.91877 22.4478 4.8083 20.093 5.13479 17.7788C5.30238 16.6305 5.57201 15.4994 5.94047 14.3989C6.30941 13.2977 6.77601 12.2315 7.3347 11.2131C8.45798 9.18193 9.95455 7.38059 11.7459 5.90352C13.5513 4.4349 15.6151 3.31577 17.8314 2.60358C20.0263 1.87452 22.3385 1.56272 24.6483 1.68436C26.9563 1.79248 29.2237 2.3308 31.3337 3.27156C33.4423 4.21098 35.3569 5.53535 36.9792 7.17668C38.6015 8.82613 39.9035 10.762 40.819 12.886C41.7329 15.0041 42.2482 17.2724 42.339 19.5772C42.4329 21.8853 42.0897 24.1904 41.3276 26.3713C40.5668 28.5612 39.4042 30.5904 37.8992 32.3546C36.3954 34.1217 34.5833 35.6015 32.5508 36.7222C30.6719 37.725 28.6444 38.4208 26.5453 38.7833C26.3862 38.8113 26.2437 38.899 26.1471 39.0284C26.0504 39.1579 26.0069 39.3193 26.0254 39.4798C26.0322 39.5656 26.0567 39.6492 26.0973 39.7252C26.1379 39.8012 26.1936 39.868 26.2612 39.9216C26.3287 39.9751 26.4065 40.0142 26.4898 40.0364C26.5731 40.0587 26.6601 40.0635 26.7453 40.0507C27.7654 39.9148 28.7726 39.6952 29.7566 39.3941C30.0481 39.3028 30.328 39.2228 30.6423 39.1144L31.5166 38.7718L31.9508 38.6006L32.3737 38.4007L33.2136 37.9954C35.4302 36.8258 37.4165 35.2648 39.0763 33.388C42.3939 29.5362 44.1472 24.5824 43.9903 19.503V19.503Z" fill="#3E0D24"/>
<path d="M0.00924134 66.8386C0.0838126 69.3556 0.636455 71.8356 1.63775 74.1465C2.6368 76.4648 4.05906 78.5771 5.83186 80.3753C7.60491 82.1659 9.6981 83.6086 12.003 84.6287C14.3053 85.6487 16.7782 86.2296 19.2942 86.3415C21.8161 86.4505 24.336 86.0844 26.7224 85.2624C29.0959 84.445 31.297 83.1944 33.2136 81.5742C35.1237 79.9628 36.7132 78.0067 37.8991 75.8079C38.4879 74.7126 38.9756 73.566 39.3562 72.3823C39.7278 71.1945 39.9898 69.9753 40.139 68.7398C40.4391 66.2675 40.2685 63.7609 39.6362 61.352C39.012 58.9507 37.9442 56.6872 36.4878 54.6778C35.0322 52.6846 33.2187 50.9791 31.1394 49.648C30.1034 48.9882 29.0071 48.4281 27.8653 47.9752C27.2938 47.7525 26.7224 47.547 26.151 47.4042C25.8596 47.3129 25.5796 47.2444 25.2654 47.1702L24.9168 47.0845C25.4882 44.4697 26.0596 41.8605 26.5967 39.2285C26.6123 39.1425 26.5943 39.0537 26.5465 38.9805C26.4987 38.9073 26.4247 38.8551 26.3396 38.8346C26.2548 38.8135 26.1651 38.8261 26.0894 38.8697C26.0137 38.9134 25.958 38.9848 25.9339 39.0687C25.1454 41.8263 24.4311 44.601 23.7111 47.3757L23.1683 49.5338L22.6426 51.7033L21.6312 56.0424C21.3398 57.3098 21.0598 58.5659 20.7741 59.8333L20.7055 60.1416C18.3285 59.6107 16.3114 59.7762 14.7001 60.644C11.0545 59.7705 8.79174 62.7051 7.6775 64.8061L7.57465 64.7775C7.30487 64.7121 7.0248 64.7005 6.75053 64.7435C6.47626 64.7865 6.21319 64.8831 5.9764 65.028C5.73962 65.1728 5.53379 65.3629 5.37072 65.5874C5.20766 65.8119 5.09057 66.0663 5.02618 66.3362C4.96068 66.6057 4.9491 66.8856 4.99211 67.1596C5.03512 67.4337 5.13187 67.6965 5.27681 67.9331C5.42174 68.1697 5.61202 68.3753 5.8367 68.5383C6.06139 68.7012 6.31607 68.8182 6.58612 68.8825C7.1309 69.0131 7.70529 68.9223 8.18313 68.6301C8.66096 68.3378 9.00317 67.8681 9.13458 67.3239C9.23396 66.8889 9.19295 66.4336 9.01742 66.0234C8.84188 65.6131 8.54085 65.269 8.15748 65.0402C9.14601 63.1847 11.0602 60.684 14.0487 61.0837C13.9744 61.135 13.9001 61.1864 13.8315 61.2435C13.2362 61.7088 12.7209 62.2681 12.3059 62.8992C12.1894 62.8756 12.0704 62.866 11.9516 62.8707C11.5769 62.8825 11.2164 63.0168 10.9254 63.253C10.6343 63.4891 10.4288 63.8141 10.3402 64.1781C10.2767 64.4451 10.2783 64.7235 10.3449 64.9898C10.4115 65.256 10.5412 65.5024 10.7231 65.7082C10.8009 65.7965 10.8892 65.8751 10.9859 65.9422C10.8255 66.5568 10.7128 67.1829 10.6488 67.8149C10.2086 67.8347 9.78668 67.9969 9.44661 68.2769C9.10655 68.557 8.86671 68.9398 8.76317 69.3678C8.63938 69.8909 8.72801 70.4417 9.00965 70.8996C9.29129 71.3576 9.74301 71.6854 10.266 71.8114C10.5252 71.8734 10.7942 71.8837 11.0575 71.8418C11.3207 71.7999 11.5731 71.7066 11.8003 71.5671C12.0274 71.4276 12.2248 71.2448 12.3812 71.0291C12.5375 70.8134 12.6498 70.569 12.7116 70.3098C12.8371 69.7875 12.7499 69.2367 12.4692 68.7785C12.1885 68.3203 11.7372 67.9922 11.2145 67.8663H11.1745C11.2359 67.3045 11.3352 66.7475 11.4716 66.1992L11.6031 66.2448L11.7802 66.2791C12.1991 66.3331 12.6232 66.2307 12.9712 65.9916C13.3192 65.7524 13.5665 65.3933 13.6658 64.9831C13.7397 64.6727 13.7253 64.348 13.6243 64.0453C13.5234 63.7427 13.3398 63.4743 13.0944 63.2703H13.0487C12.9801 63.2189 12.9059 63.1732 12.8316 63.1276C13.1979 62.5886 13.645 62.1091 14.1572 61.706C15.7629 60.467 17.9285 60.1473 20.597 60.7468L20.3627 61.803C17.5685 61.2321 16.3629 62.4881 15.8943 63.2532C15.612 63.2162 15.3261 63.2859 15.0926 63.4485C14.859 63.6112 14.6946 63.855 14.6315 64.1324C14.5934 64.2806 14.5854 64.4349 14.6081 64.5862C14.6308 64.7375 14.6837 64.8826 14.7636 65.0131C14.8436 65.1436 14.9489 65.2567 15.0735 65.3457C15.198 65.4347 15.3392 65.4978 15.4886 65.5312C15.6369 65.5693 15.7913 65.5772 15.9428 65.5546C16.0942 65.5319 16.2395 65.4791 16.3701 65.3992C16.5007 65.3193 16.6138 65.214 16.7029 65.0896C16.792 64.9651 16.8551 64.8241 16.8886 64.6748C16.9462 64.4423 16.9293 64.1975 16.84 63.9752C16.7508 63.7529 16.5939 63.5642 16.3914 63.4359C16.5376 63.2172 16.7191 63.0242 16.9286 62.865C17.6999 62.2426 18.8428 62.06 20.2484 62.334L20.0541 63.1904V63.2532L19.9856 63.5672C19.8764 63.5682 19.7675 63.5777 19.6599 63.5957H19.5399C19.3496 63.6483 19.1698 63.7332 19.0085 63.8469C18.6755 64.0841 18.4384 64.4324 18.3399 64.8289C18.3158 64.9261 18.3024 65.0257 18.2999 65.1258C18.2942 65.2056 18.2942 65.2858 18.2999 65.3656C17.4613 65.7993 16.7636 66.4627 16.2886 67.2782V67.2782C16.0541 67.2212 15.8106 67.211 15.5722 67.2482C15.3337 67.2854 15.1049 67.3693 14.899 67.495C14.693 67.6207 14.5139 67.7858 14.3719 67.9808C14.2299 68.1757 14.1278 68.3968 14.0715 68.6313C14.0154 68.8656 14.0061 69.1087 14.0441 69.3466C14.0821 69.5845 14.1667 69.8126 14.293 70.0178C14.4193 70.223 14.5849 70.4013 14.7802 70.5425C14.9756 70.6838 15.1969 70.7851 15.4315 70.8408C15.6656 70.8977 15.9087 70.9079 16.1468 70.8706C16.3849 70.8333 16.6132 70.7494 16.8187 70.6237C17.0242 70.4979 17.2028 70.3328 17.3442 70.1379C17.4857 69.9429 17.5871 69.722 17.6428 69.4877C17.7345 69.1072 17.7018 68.7074 17.5496 68.3469C17.3975 67.9863 17.1338 67.6838 16.7971 67.4837C17.1967 66.815 17.7639 66.2621 18.4428 65.8794C18.4428 65.8794 18.4428 65.9308 18.4713 65.9479C18.5187 66.0468 18.5762 66.1406 18.6428 66.2277C18.7389 66.3551 18.8524 66.4685 18.9799 66.5646C19.0683 66.6324 19.1641 66.6898 19.2656 66.7358L19.0485 67.6779L18.7056 69.1452L18.3342 70.7266L18.2656 71.0349H17.9457C17.3342 71.0475 16.7441 71.2613 16.2667 71.6433C15.7894 72.0252 15.4516 72.554 15.3058 73.1474C15.1356 73.8583 15.2549 74.6075 15.6374 75.2306C16.0199 75.8537 16.6343 76.2995 17.3457 76.4701C17.6976 76.5552 18.0629 76.5701 18.4206 76.5139C18.7783 76.4578 19.1214 76.3317 19.4303 76.1429C19.7392 75.9541 20.0078 75.7064 20.2207 75.4138C20.4336 75.1211 20.5868 74.7894 20.6713 74.4376C20.8147 73.8435 20.7561 73.2185 20.5047 72.6613C20.2533 72.1041 19.8234 71.6464 19.2827 71.3604C19.1889 71.3079 19.0916 71.2621 18.9913 71.2233L19.0656 70.9207L19.4542 69.345L19.6084 68.7284L19.6827 68.4258C19.7856 68.4494 19.8868 68.4799 19.9856 68.5171C20.3704 68.6436 20.7155 68.8681 20.9871 69.1684C21.2586 69.4687 21.4471 69.8346 21.5341 70.2299C21.5367 70.2641 21.5367 70.2985 21.5341 70.3327C21.2465 70.517 21.0417 70.8056 20.9627 71.1377C20.8817 71.4753 20.9379 71.8312 21.1188 72.1276C21.2998 72.4239 21.5908 72.6366 21.9283 72.7192C22.2669 72.7983 22.6231 72.7407 22.9195 72.559C23.2158 72.3773 23.4285 72.0861 23.5111 71.7486C23.5921 71.411 23.536 71.0551 23.355 70.7587C23.174 70.4623 22.883 70.2496 22.5455 70.1671C22.4104 70.1381 22.2719 70.1285 22.1341 70.1386C22.0317 69.6201 21.7898 69.1394 21.4344 68.748C21.079 68.3567 20.6235 68.0696 20.117 67.9176C20.0201 67.8805 19.9209 67.85 19.8199 67.8263L19.8941 67.5237L20.0427 66.9528C20.1566 66.9473 20.2695 66.9301 20.3798 66.9014C20.5855 66.8545 20.7797 66.7672 20.9513 66.6445C21.0531 66.575 21.1453 66.4925 21.2255 66.399C21.3509 66.2644 21.4532 66.1101 21.5284 65.9422C21.5648 65.851 21.5954 65.7576 21.6198 65.6625C21.6839 65.37 21.6701 65.0659 21.5799 64.7804C21.4897 64.4949 21.3261 64.238 21.1055 64.0353C21.0213 63.962 20.9315 63.8952 20.837 63.8355L21.0827 62.8478L21.1627 62.5452L21.4598 62.6366C22.6945 62.9896 23.7574 63.7815 24.4482 64.8632C24.8654 65.5776 25.1008 66.3833 25.1339 67.2097V67.244C25.1367 67.261 25.1367 67.2783 25.1339 67.2954V67.2954V67.3695C24.7614 67.3854 24.4043 67.5222 24.1166 67.7592C23.8289 67.9962 23.6264 68.3204 23.5397 68.6827C23.487 68.9016 23.478 69.1288 23.5132 69.3512C23.5484 69.5737 23.6272 69.7869 23.745 69.9789C23.8628 70.1709 24.0174 70.3377 24.1998 70.47C24.3823 70.6022 24.589 70.6972 24.8082 70.7495C25.2237 70.851 25.6621 70.7936 26.0374 70.5887C26.4128 70.3837 26.6978 70.046 26.8367 69.6419C27.2874 69.8804 27.6602 70.243 27.911 70.6867C28.0987 71.0499 28.193 71.4541 28.1852 71.8628C27.8371 71.8311 27.4891 71.9255 27.2048 72.1288C26.9205 72.3322 26.7189 72.6308 26.6367 72.9704C26.5474 73.3444 26.6104 73.7385 26.8118 74.0661C27.0133 74.3937 27.3367 74.628 27.711 74.7174C28.086 74.8068 28.4812 74.744 28.81 74.5428C29.1388 74.3416 29.3744 74.0185 29.4652 73.6441C29.5941 73.2972 29.5855 72.9142 29.441 72.5735C29.2965 72.2328 29.0272 71.9601 28.6881 71.8114C28.7229 71.2658 28.6084 70.721 28.3567 70.2356C28.0276 69.6465 27.522 69.1753 26.911 68.8882C26.9143 68.51 26.7922 68.1414 26.5637 67.8398C26.3353 67.5383 26.0134 67.3207 25.6482 67.2211C25.6503 66.2186 25.3861 65.2336 24.8825 64.3665C24.2223 63.3125 23.2289 62.5088 22.0598 62.0828V62.0828H21.9569L21.7684 62.0086L21.5855 61.9457L21.2884 61.8544L21.3684 61.5518C21.6377 61.6294 21.9028 61.7208 22.1626 61.8259C26.5453 63.0534 28.1852 64.5206 28.7738 65.5769C28.8164 65.6487 28.8545 65.723 28.8881 65.7995C28.6187 65.8653 28.3728 66.0041 28.1772 66.2005C27.9817 66.3969 27.8441 66.6434 27.7795 66.9128C27.7327 67.1055 27.7244 67.3056 27.7551 67.5015C27.7858 67.6974 27.8549 67.8853 27.9584 68.0545C28.0619 68.2237 28.1978 68.3708 28.3583 68.4874C28.5188 68.604 28.7008 68.6878 28.8938 68.7341C29.0889 68.7797 29.2911 68.7863 29.4888 68.7536C29.6866 68.7208 29.8758 68.6493 30.0458 68.5432C30.2157 68.4371 30.363 68.2984 30.4791 68.1352C30.5952 67.972 30.6778 67.7875 30.7223 67.5922C30.7679 67.3976 30.7745 67.1959 30.7416 66.9987C30.7088 66.8016 30.6371 66.6129 30.5309 66.4435C30.4246 66.2742 30.2858 66.1276 30.1225 66.0121C29.9592 65.8967 29.7747 65.8147 29.5795 65.771L29.4195 65.7424C29.3643 65.6011 29.2994 65.4637 29.2252 65.3314C28.5624 64.1096 26.671 62.4025 21.4484 61.0779L21.5227 60.7753L21.5855 60.547C21.5855 60.4614 21.6312 60.3757 21.6484 60.2901C21.6655 60.2044 21.7055 60.0788 21.7341 59.9818C27.0881 60.6612 30.7223 62.3111 32.5451 64.8803C33.0987 65.6529 33.4753 66.5379 33.6479 67.4723C33.1953 67.5211 32.7689 67.7087 32.4272 68.0092C32.0855 68.3097 31.8452 68.7085 31.7394 69.1509C31.6036 69.7202 31.6994 70.32 32.0058 70.8188C32.3122 71.3176 32.8041 71.6746 33.3736 71.8114C33.6554 71.8793 33.9478 71.8909 34.2341 71.8455C34.5204 71.8001 34.7949 71.6986 35.0418 71.5469C35.2888 71.3951 35.5032 71.1961 35.6729 70.9613C35.8426 70.7265 35.9642 70.4605 36.0306 70.1785C36.1632 69.6117 36.0665 69.0154 35.7616 68.5194C35.4566 68.0233 34.9681 67.6676 34.4021 67.5294L34.1907 67.4895C34.0103 66.4475 33.5962 65.4598 32.9793 64.6006C31.4822 62.4767 28.8481 60.9638 25.1111 60.0674C24.0403 59.819 22.9568 59.6284 21.8655 59.4965C21.8941 59.3937 21.9169 59.2909 21.9455 59.1882C22.1969 58.2119 22.4426 57.2299 22.6883 56.2536L23.7626 51.926L24.2768 49.7564L24.7739 47.5812C26.8887 48.1395 28.894 49.0505 30.7051 50.276C32.6532 51.6087 34.3369 53.2909 35.6706 55.2373C37.0102 57.1658 37.979 59.3264 38.5277 61.6089C39.0722 63.8801 39.1827 66.2336 38.8534 68.5457C38.6885 69.6964 38.4188 70.8296 38.0477 71.9313C37.6822 73.0321 37.2155 74.0966 36.6535 75.1114C35.5318 77.1437 34.035 78.9453 32.2422 80.421C30.4566 81.9 28.4101 83.0328 26.2082 83.7609C24.0151 84.4895 21.7049 84.8013 19.397 84.6801C17.0889 84.5686 14.8217 84.0284 12.7116 83.0872C10.5995 82.1534 8.68239 80.8305 7.06039 79.1878C5.43809 77.5383 4.13611 75.6025 3.22054 73.4785C2.30924 71.3595 1.7941 69.0917 1.7006 66.7872C1.60955 64.4774 1.9526 62.171 2.71199 59.9875C3.4753 57.7986 4.63771 55.77 6.14042 54.0041C7.64523 52.2374 9.45953 50.7593 11.4945 49.6423C13.3716 48.6352 15.3997 47.9392 17.5 47.5812C17.6581 47.5519 17.7992 47.4636 17.8946 47.3343C17.9901 47.205 18.0329 47.0443 18.0142 46.8847C18.0065 46.7991 17.9815 46.716 17.9407 46.6404C17.8999 46.5648 17.8441 46.4983 17.7768 46.4449C17.7095 46.3915 17.632 46.3524 17.549 46.3298C17.4661 46.3073 17.3794 46.3018 17.2943 46.3138C16.2759 46.4491 15.2706 46.6687 14.2887 46.9703C13.9915 47.0674 13.7173 47.1473 13.3973 47.2558L12.523 47.5926L12.0887 47.7696L11.6716 47.9694L10.8259 48.3748C8.59601 49.5369 6.59599 51.0942 4.92333 52.9708C1.6092 56.8178 -0.143825 61.765 0.00924134 66.8386V66.8386Z" fill="#3E0D24"/>
</svg>
