<?xml version="1.0" encoding="utf-8"?>
<!-- Generator: Adobe Illustrator 26.0.2, SVG Export Plug-In . SVG Version: 6.00 Build 0)  -->
<svg version="1.1" id="Camada_1" xmlns="http://www.w3.org/2000/svg" xmlns:xlink="http://www.w3.org/1999/xlink" x="0px" y="0px"
	 viewBox="0 0 580 580" style="enable-background:new 0 0 580 580;" xml:space="preserve">
<style type="text/css">
	.st0{fill:#9AC6DA;}
	.st1{fill:#9AC6DA;stroke:#9AC6DA;}
	.st2{fill:#FFFFFF;filter:url(#Adobe_OpacityMaskFilter);}
	
		.st3{mask:url(#path-3-inside-1_18_8_00000085959079919651965640000003238593627927015309_);fill:#9AC6DA;stroke:#9AC6DA;stroke-width:2;}
	.st4{fill:#FFFFFF;filter:url(#Adobe_OpacityMaskFilter_00000159462137781567396530000001964977608964942001_);}
	.st5{mask:url(#path-4-inside-2_18_8_00000134217402004148476210000016038190731345994653_);fill:#9AC6DA;}
	.st6{fill:#FFFFFF;filter:url(#Adobe_OpacityMaskFilter_00000003107160601626917070000009040764879286413746_);}
	.st7{mask:url(#path-6-inside-3_18_8_00000036245231609275494740000014675356748316572861_);fill:#9AC6DA;}
</style>
<g>
	<g>
		<path class="st0" d="M290,580c-77.5,0-150.3-30.2-205.1-84.9S0,367.5,0,290S30.2,139.7,84.9,84.9S212.5,0,290,0
			s150.3,30.2,205.1,84.9S580,212.5,580,290s-30.2,150.3-84.9,205.1S367.5,580,290,580z M290,5.9c-75.9,0-147.2,29.5-200.9,83.2
			S5.9,214.1,5.9,290s29.5,147.2,83.2,200.9c53.6,53.7,125,83.2,200.9,83.2s147.2-29.5,200.9-83.2c53.7-53.6,83.2-125,83.2-200.9
			s-29.5-147.2-83.2-200.9C437.2,35.5,365.9,5.9,290,5.9z"/>
	</g>
	<path class="st1" d="M378,214.7c21.3,20.9,33.6,49.3,34.3,79.1h-246c0.7-29.8,13-58.2,34.3-79.1c21.4-21,50.2-32.8,80.2-32.8h16.9
		C327.8,181.9,356.6,193.7,378,214.7z"/>
	<defs>
		<filter id="Adobe_OpacityMaskFilter" filterUnits="userSpaceOnUse" x="26.7" y="26.7" width="526.5" height="526.5">
			<feColorMatrix  type="matrix" values="1 0 0 0 0  0 1 0 0 0  0 0 1 0 0  0 0 0 1 0"/>
		</filter>
	</defs>
	
		<mask maskUnits="userSpaceOnUse" x="26.7" y="26.7" width="526.5" height="526.5" id="path-3-inside-1_18_8_00000085959079919651965640000003238593627927015309_">
		<path class="st2" d="M235.7,329.5c9.3,1.1,18.5,3,27.5,5.6c5.8,1.7,12.5,3.3,18.5,1.6c9.7-2.7,19.6-4.9,29.6-6.4l2.9-0.5
			c1-0.2,2-0.3,3-0.3H235.7z M317.9,329.5c5.8,0.1,10.4,2.9,12.8,7.9c3,6.2,1.7,14-3,18.2c-0.8,0.7-1.7,1.4-2.6,2.2h0.7
			c0.7,0,1.4-0.1,2.1-0.3l22.3-7.3c1.6-0.5,3.1-1.3,4.5-2.2c4.1-2.8,11.6-7.1,18.8-11.3c2-1.1,3.9-2.2,5.7-3.3
			c3-1.8,6.2-3.1,9.6-3.9L317.9,329.5z M395.9,339.2c-1.2-1.7-5.6-1.8-12.2,2l-5.7,3.3c-7,4.1-14.4,8.3-18.1,10.9
			c-2.1,1.5-4.4,2.6-6.8,3.4l-22.3,7.3c-1.5,0.5-3.1,0.7-4.7,0.7l-19.4,0.6c-1.1,0-2.2-0.3-3.1-1c-0.9-0.7-1.4-1.7-1.6-2.8
			c-0.2-1.1,0.1-2.2,0.7-3.2c0.6-0.9,1.5-1.6,2.6-1.9c5.5-1.5,12.3-6.1,16.4-9.7c1.5-1.3,2.2-4.8,0.9-7.5c-1.1-2.3-3.5-3.2-7-2.6
			l-2.9,0.5c-9.6,1.5-19.2,3.5-28.5,6.2c-8.3,2.4-16.5,0.4-23.5-1.6c-9.8-2.8-24.2-6.1-38-5.9c-16.2,0.2-33.4,22.4-40.1,33.3
			l44.3,31.2c15.4-16.1,29.2-14.5,42.5-13c2.3,0.3,4.7,0.5,7.1,0.7l1.8,0.1c15.5,1.2,26.6,2,53.1-3.3c24.7-4.9,48.1-26.1,58.1-35.2
			l2.3-2.1C396.6,345.4,397.1,340.9,395.9,339.2z M388.7,329.5h7.9C394,328.9,391.3,328.9,388.7,329.5z M388.7,329.5h7.9
			C394,328.9,391.3,328.9,388.7,329.5z M383.7,341.3l-5.7,3.3c-7,4.1-14.4,8.3-18.1,10.9c-2.1,1.5-4.4,2.6-6.8,3.4l-22.3,7.3
			c-1.5,0.5-3.1,0.7-4.7,0.7l-19.4,0.6c-1.1,0-2.2-0.3-3.1-1c-0.9-0.7-1.4-1.7-1.6-2.8c-0.2-1.1,0.1-2.2,0.7-3.2
			c0.6-0.9,1.5-1.6,2.6-1.9c5.4-1.5,12.3-6.1,16.4-9.7c1.5-1.3,2.2-4.8,0.9-7.5c-1.1-2.3-3.5-3.2-7-2.6l-2.9,0.5
			c-9.6,1.5-19.2,3.5-28.5,6.2c-8.3,2.4-16.5,0.4-23.5-1.6c-9.8-2.8-24.2-6.1-38-5.9c-16.2,0.2-33.4,22.4-40.1,33.3l44.3,31.2
			c15.4-16.1,29.2-14.5,42.5-13c2.3,0.3,4.7,0.5,7.1,0.7l1.8,0.1c15.5,1.2,26.6,2,53.1-3.3c24.7-4.9,48.1-26.1,58.1-35.2l2.3-2.1
			c4.9-4.4,5.4-8.8,4.2-10.5C394.7,337.5,390.4,337.4,383.7,341.3L383.7,341.3z M330.8,337.4c3,6.2,1.7,14-3,18.2
			c-0.8,0.7-1.7,1.4-2.6,2.2h0.7c0.7,0,1.4-0.1,2.1-0.3l22.3-7.3c1.6-0.5,3.1-1.3,4.5-2.2c4.1-2.8,11.6-7.1,18.8-11.3
			c2-1.1,3.9-2.2,5.7-3.3c3-1.8,6.2-3.1,9.6-3.9h-70.8C323.7,329.6,328.4,332.4,330.8,337.4L330.8,337.4z M281.6,336.7
			c9.7-2.7,19.6-4.9,29.6-6.4l2.9-0.5c1-0.2,2-0.3,3-0.3h-81.4c9.3,1.1,18.5,3,27.5,5.6C269,336.8,275.7,338.4,281.6,336.7
			L281.6,336.7z M475.5,104.6C438.8,67.9,392,42.9,341.2,32.8c-50.9-10.1-103.6-4.9-151.5,14.9c-47.9,19.9-88.9,53.5-117.7,96.6
			C43.1,187.4,27.7,238.1,27.7,290c0,144.8,117.4,262.3,262.3,262.3c51.9,0,102.6-15.4,145.7-44.2c43.1-28.8,76.7-69.8,96.6-117.7
			c19.9-47.9,25-100.7,14.9-151.5C537.1,188,512.1,141.2,475.5,104.6z M428.8,329.5h-32.2c2.7,0.6,5,2.2,6.6,4.4
			c4.5,6.3,2.2,15.8-5.5,22.6c-0.6,0.6-1.4,1.2-2.2,2c-10.6,9.6-35.3,32-62.4,37.4c-27.6,5.5-39.9,4.6-55.5,3.4l-1.8-0.1
			c-2.6-0.2-5-0.5-7.5-0.8c-12.4-1.4-22.3-2.5-34.2,9.5c2.2,2.4,3.5,5.4,3.7,8.6c0.2,3.2-0.7,6.4-2.5,9l-8.3,11.8
			c-1.1,1.5-2.4,2.8-4,3.8c-1.6,1-3.3,1.6-5.1,2c-0.8,0.1-1.7,0.2-2.5,0.2c-2.8,0-5.6-0.9-7.9-2.6l-54.9-38.8
			c-3-2.2-5.1-5.4-5.7-9.1c-0.6-3.7,0.2-7.4,2.4-10.5l8.3-11.8c1.9-2.7,4.7-4.7,8-5.5c3.2-0.8,6.6-0.5,9.6,1
			c5.2-8.2,21.8-32.2,41.8-36.6h-67c-4.7,0-9.1-1.9-12.4-5.2c-3.3-3.3-5.2-7.8-5.2-12.4s1.9-9.1,5.2-12.4c3.3-3.3,7.8-5.2,12.4-5.2
			h6.9c0.6-31.5,13.1-61.5,35-84.1c21.9-22.6,51.5-36.1,82.9-37.7c-2.3-1.6-3.9-4-4.4-6.8l-1.8-8.8c-0.3-1.6-0.3-3.2,0.1-4.8
			c0.4-1.6,1.1-3,2.2-4.3c1-1.3,2.3-2.3,3.8-3c1.5-0.7,3.1-1.1,4.7-1.1h20.3c1.6,0,3.2,0.4,4.7,1.1c1.5,0.7,2.8,1.7,3.8,3
			c1,1.3,1.8,2.7,2.2,4.3c0.4,1.6,0.4,3.2,0.1,4.8l-1.8,8.8c-0.5,2.7-2.1,5.1-4.4,6.8c31.4,1.6,61,15.1,82.9,37.7
			c21.9,22.6,34.4,52.7,34.9,84.1h6.9c4.7,0,9.1,1.9,12.4,5.2c3.3,3.3,5.2,7.8,5.2,12.4s-1.9,9.1-5.2,12.4
			C438,327.6,433.5,329.5,428.8,329.5z M388.7,329.5h7.9C394,328.9,391.3,328.9,388.7,329.5L388.7,329.5z M312.6,339.2
			c-9.6,1.5-19.2,3.5-28.5,6.2c-8.3,2.4-16.5,0.4-23.5-1.6c-9.8-2.8-24.2-6.1-38-5.9c-16.2,0.2-33.4,22.4-40.1,33.3l44.3,31.2
			c15.4-16.1,29.2-14.5,42.5-13c2.3,0.3,4.7,0.5,7.1,0.7l1.8,0.1c15.5,1.2,26.6,2,53.1-3.3c24.7-4.9,48.1-26.1,58.1-35.2l2.3-2.1
			c4.9-4.4,5.4-8.8,4.2-10.5c-1.2-1.7-5.6-1.8-12.2,2l-5.7,3.3c-7,4.1-14.4,8.3-18.1,10.9c-2.1,1.5-4.4,2.6-6.8,3.4l-22.3,7.3
			c-1.5,0.5-3.1,0.7-4.7,0.7l-19.4,0.6c-1.1,0-2.2-0.3-3.1-1c-0.9-0.7-1.4-1.7-1.6-2.8c-0.2-1.1,0.1-2.2,0.7-3.2
			c0.6-0.9,1.5-1.6,2.6-1.9c5.5-1.5,12.3-6.1,16.4-9.7c1.5-1.3,2.2-4.8,0.9-7.5c-1.1-2.3-3.5-3.2-7-2.6L312.6,339.2z M330.7,337.4
			c3,6.2,1.7,14-3,18.2c-0.8,0.7-1.7,1.4-2.6,2.2h0.7c0.7,0,1.4-0.1,2.1-0.3l22.4-7.3c1.6-0.5,3.1-1.3,4.5-2.2
			c4.1-2.8,11.6-7.1,18.8-11.3c2-1.1,3.9-2.2,5.7-3.3c3-1.8,6.2-3.1,9.6-3.9h-70.8C323.7,329.6,328.4,332.4,330.7,337.4L330.7,337.4
			z M281.5,336.7c9.7-2.7,19.6-4.9,29.6-6.4l2.9-0.5c1-0.2,2-0.3,3-0.3h-81.3c9.3,1.1,18.5,3,27.5,5.6c5.8,1.7,12.5,3.3,18.5,1.6
			H281.5z M235.6,329.5c9.3,1.1,18.5,3,27.5,5.6c5.8,1.7,12.5,3.3,18.5,1.6c9.7-2.7,19.6-4.9,29.6-6.4l2.9-0.5c1-0.2,2-0.3,3-0.3
			H235.6z M317.8,329.5c5.8,0.1,10.4,2.9,12.8,7.9c3,6.2,1.7,14-3,18.2c-0.8,0.7-1.7,1.4-2.6,2.2h0.7c0.7,0,1.4-0.1,2.1-0.3
			l22.4-7.3c1.6-0.5,3.1-1.3,4.5-2.2c4.1-2.8,11.6-7.1,18.8-11.3c2-1.1,3.9-2.2,5.7-3.3c3-1.8,6.2-3.1,9.6-3.9L317.8,329.5z"/>
	</mask>
	<path class="st3" d="M235.7,329.5c9.3,1.1,18.5,3,27.5,5.6c5.8,1.7,12.5,3.3,18.5,1.6c9.7-2.7,19.6-4.9,29.6-6.4l2.9-0.5
		c1-0.2,2-0.3,3-0.3H235.7z M317.9,329.5c5.8,0.1,10.4,2.9,12.8,7.9c3,6.2,1.7,14-3,18.2c-0.8,0.7-1.7,1.4-2.6,2.2h0.7
		c0.7,0,1.4-0.1,2.1-0.3l22.3-7.3c1.6-0.5,3.1-1.3,4.5-2.2c4.1-2.8,11.6-7.1,18.8-11.3c2-1.1,3.9-2.2,5.7-3.3c3-1.8,6.2-3.1,9.6-3.9
		L317.9,329.5z M395.9,339.2c-1.2-1.7-5.6-1.8-12.2,2l-5.7,3.3c-7,4.1-14.4,8.3-18.1,10.9c-2.1,1.5-4.4,2.6-6.8,3.4l-22.3,7.3
		c-1.5,0.5-3.1,0.7-4.7,0.7l-19.4,0.6c-1.1,0-2.2-0.3-3.1-1c-0.9-0.7-1.4-1.7-1.6-2.8c-0.2-1.1,0.1-2.2,0.7-3.2
		c0.6-0.9,1.5-1.6,2.6-1.9c5.5-1.5,12.3-6.1,16.4-9.7c1.5-1.3,2.2-4.8,0.9-7.5c-1.1-2.3-3.5-3.2-7-2.6l-2.9,0.5
		c-9.6,1.5-19.2,3.5-28.5,6.2c-8.3,2.4-16.5,0.4-23.5-1.6c-9.8-2.8-24.2-6.1-38-5.9c-16.2,0.2-33.4,22.4-40.1,33.3l44.3,31.2
		c15.4-16.1,29.2-14.5,42.5-13c2.3,0.3,4.7,0.5,7.1,0.7l1.8,0.1c15.5,1.2,26.6,2,53.1-3.3c24.7-4.9,48.1-26.1,58.1-35.2l2.3-2.1
		C396.6,345.4,397.1,340.9,395.9,339.2z M388.7,329.5h7.9C394,328.9,391.3,328.9,388.7,329.5z M388.7,329.5h7.9
		C394,328.9,391.3,328.9,388.7,329.5z M383.7,341.3l-5.7,3.3c-7,4.1-14.4,8.3-18.1,10.9c-2.1,1.5-4.4,2.6-6.8,3.4l-22.3,7.3
		c-1.5,0.5-3.1,0.7-4.7,0.7l-19.4,0.6c-1.1,0-2.2-0.3-3.1-1c-0.9-0.7-1.4-1.7-1.6-2.8c-0.2-1.1,0.1-2.2,0.7-3.2
		c0.6-0.9,1.5-1.6,2.6-1.9c5.4-1.5,12.3-6.1,16.4-9.7c1.5-1.3,2.2-4.8,0.9-7.5c-1.1-2.3-3.5-3.2-7-2.6l-2.9,0.5
		c-9.6,1.5-19.2,3.5-28.5,6.2c-8.3,2.4-16.5,0.4-23.5-1.6c-9.8-2.8-24.2-6.1-38-5.9c-16.2,0.2-33.4,22.4-40.1,33.3l44.3,31.2
		c15.4-16.1,29.2-14.5,42.5-13c2.3,0.3,4.7,0.5,7.1,0.7l1.8,0.1c15.5,1.2,26.6,2,53.1-3.3c24.7-4.9,48.1-26.1,58.1-35.2l2.3-2.1
		c4.9-4.4,5.4-8.8,4.2-10.5C394.7,337.5,390.4,337.4,383.7,341.3L383.7,341.3z M330.8,337.4c3,6.2,1.7,14-3,18.2
		c-0.8,0.7-1.7,1.4-2.6,2.2h0.7c0.7,0,1.4-0.1,2.1-0.3l22.3-7.3c1.6-0.5,3.1-1.3,4.5-2.2c4.1-2.8,11.6-7.1,18.8-11.3
		c2-1.1,3.9-2.2,5.7-3.3c3-1.8,6.2-3.1,9.6-3.9h-70.8C323.7,329.6,328.4,332.4,330.8,337.4L330.8,337.4z M281.6,336.7
		c9.7-2.7,19.6-4.9,29.6-6.4l2.9-0.5c1-0.2,2-0.3,3-0.3h-81.4c9.3,1.1,18.5,3,27.5,5.6C269,336.8,275.7,338.4,281.6,336.7
		L281.6,336.7z M475.5,104.6C438.8,67.9,392,42.9,341.2,32.8c-50.9-10.1-103.6-4.9-151.5,14.9c-47.9,19.9-88.9,53.5-117.7,96.6
		C43.1,187.4,27.7,238.1,27.7,290c0,144.8,117.4,262.3,262.3,262.3c51.9,0,102.6-15.4,145.7-44.2c43.1-28.8,76.7-69.8,96.6-117.7
		c19.9-47.9,25-100.7,14.9-151.5C537.1,188,512.1,141.2,475.5,104.6z M428.8,329.5h-32.2c2.7,0.6,5,2.2,6.6,4.4
		c4.5,6.3,2.2,15.8-5.5,22.6c-0.6,0.6-1.4,1.2-2.2,2c-10.6,9.6-35.3,32-62.4,37.4c-27.6,5.5-39.9,4.6-55.5,3.4l-1.8-0.1
		c-2.6-0.2-5-0.5-7.5-0.8c-12.4-1.4-22.3-2.5-34.2,9.5c2.2,2.4,3.5,5.4,3.7,8.6c0.2,3.2-0.7,6.4-2.5,9l-8.3,11.8
		c-1.1,1.5-2.4,2.8-4,3.8c-1.6,1-3.3,1.6-5.1,2c-0.8,0.1-1.7,0.2-2.5,0.2c-2.8,0-5.6-0.9-7.9-2.6l-54.9-38.8c-3-2.2-5.1-5.4-5.7-9.1
		c-0.6-3.7,0.2-7.4,2.4-10.5l8.3-11.8c1.9-2.7,4.7-4.7,8-5.5c3.2-0.8,6.6-0.5,9.6,1c5.2-8.2,21.8-32.2,41.8-36.6h-67
		c-4.7,0-9.1-1.9-12.4-5.2c-3.3-3.3-5.2-7.8-5.2-12.4s1.9-9.1,5.2-12.4c3.3-3.3,7.8-5.2,12.4-5.2h6.9c0.6-31.5,13.1-61.5,35-84.1
		c21.9-22.6,51.5-36.1,82.9-37.7c-2.3-1.6-3.9-4-4.4-6.8l-1.8-8.8c-0.3-1.6-0.3-3.2,0.1-4.8c0.4-1.6,1.1-3,2.2-4.3
		c1-1.3,2.3-2.3,3.8-3c1.5-0.7,3.1-1.1,4.7-1.1h20.3c1.6,0,3.2,0.4,4.7,1.1c1.5,0.7,2.8,1.7,3.8,3c1,1.3,1.8,2.7,2.2,4.3
		c0.4,1.6,0.4,3.2,0.1,4.8l-1.8,8.8c-0.5,2.7-2.1,5.1-4.4,6.8c31.4,1.6,61,15.1,82.9,37.7c21.9,22.6,34.4,52.7,34.9,84.1h6.9
		c4.7,0,9.1,1.9,12.4,5.2c3.3,3.3,5.2,7.8,5.2,12.4s-1.9,9.1-5.2,12.4C438,327.6,433.5,329.5,428.8,329.5z M388.7,329.5h7.9
		C394,328.9,391.3,328.9,388.7,329.5L388.7,329.5z M312.6,339.2c-9.6,1.5-19.2,3.5-28.5,6.2c-8.3,2.4-16.5,0.4-23.5-1.6
		c-9.8-2.8-24.2-6.1-38-5.9c-16.2,0.2-33.4,22.4-40.1,33.3l44.3,31.2c15.4-16.1,29.2-14.5,42.5-13c2.3,0.3,4.7,0.5,7.1,0.7l1.8,0.1
		c15.5,1.2,26.6,2,53.1-3.3c24.7-4.9,48.1-26.1,58.1-35.2l2.3-2.1c4.9-4.4,5.4-8.8,4.2-10.5c-1.2-1.7-5.6-1.8-12.2,2l-5.7,3.3
		c-7,4.1-14.4,8.3-18.1,10.9c-2.1,1.5-4.4,2.6-6.8,3.4l-22.3,7.3c-1.5,0.5-3.1,0.7-4.7,0.7l-19.4,0.6c-1.1,0-2.2-0.3-3.1-1
		c-0.9-0.7-1.4-1.7-1.6-2.8c-0.2-1.1,0.1-2.2,0.7-3.2c0.6-0.9,1.5-1.6,2.6-1.9c5.5-1.5,12.3-6.1,16.4-9.7c1.5-1.3,2.2-4.8,0.9-7.5
		c-1.1-2.3-3.5-3.2-7-2.6L312.6,339.2z M330.7,337.4c3,6.2,1.7,14-3,18.2c-0.8,0.7-1.7,1.4-2.6,2.2h0.7c0.7,0,1.4-0.1,2.1-0.3
		l22.4-7.3c1.6-0.5,3.1-1.3,4.5-2.2c4.1-2.8,11.6-7.1,18.8-11.3c2-1.1,3.9-2.2,5.7-3.3c3-1.8,6.2-3.1,9.6-3.9h-70.8
		C323.7,329.6,328.4,332.4,330.7,337.4L330.7,337.4z M281.5,336.7c9.7-2.7,19.6-4.9,29.6-6.4l2.9-0.5c1-0.2,2-0.3,3-0.3h-81.3
		c9.3,1.1,18.5,3,27.5,5.6c5.8,1.7,12.5,3.3,18.5,1.6H281.5z M235.6,329.5c9.3,1.1,18.5,3,27.5,5.6c5.8,1.7,12.5,3.3,18.5,1.6
		c9.7-2.7,19.6-4.9,29.6-6.4l2.9-0.5c1-0.2,2-0.3,3-0.3H235.6z M317.8,329.5c5.8,0.1,10.4,2.9,12.8,7.9c3,6.2,1.7,14-3,18.2
		c-0.8,0.7-1.7,1.4-2.6,2.2h0.7c0.7,0,1.4-0.1,2.1-0.3l22.4-7.3c1.6-0.5,3.1-1.3,4.5-2.2c4.1-2.8,11.6-7.1,18.8-11.3
		c2-1.1,3.9-2.2,5.7-3.3c3-1.8,6.2-3.1,9.6-3.9L317.8,329.5z"/>
	<path class="st0" d="M388.7,329.5h7.9C394,328.9,391.3,328.9,388.7,329.5z"/>
	<defs>
		
			<filter id="Adobe_OpacityMaskFilter_00000052065777225276061170000000805217561106979992_" filterUnits="userSpaceOnUse" x="388.5" y="328" width="8.3" height="2.4">
			<feColorMatrix  type="matrix" values="1 0 0 0 0  0 1 0 0 0  0 0 1 0 0  0 0 0 1 0"/>
		</filter>
	</defs>
	
		<mask maskUnits="userSpaceOnUse" x="388.5" y="328" width="8.3" height="2.4" id="path-4-inside-2_18_8_00000134217402004148476210000016038190731345994653_">
		<path style="fill:#FFFFFF;filter:url(#Adobe_OpacityMaskFilter_00000052065777225276061170000000805217561106979992_);" d="
			M388.7,329.5h7.9C394,328.9,391.3,328.9,388.7,329.5z"/>
	</mask>
	<path class="st5" d="M396.6,329.5v1l0.2-2L396.6,329.5z M388.7,330.5h7.9v-2h-7.9V330.5z M396.8,328.5c-2.7-0.7-5.6-0.7-8.3,0
		l0.5,1.9c2.4-0.6,5-0.6,7.4,0L396.8,328.5z"/>
	<path class="st0" d="M388.7,329.5h7.9C394,328.9,391.3,328.9,388.7,329.5z"/>
	<defs>
		
			<filter id="Adobe_OpacityMaskFilter_00000030483945872451264220000006066930766359825041_" filterUnits="userSpaceOnUse" x="388.5" y="328" width="8.3" height="2.4">
			<feColorMatrix  type="matrix" values="1 0 0 0 0  0 1 0 0 0  0 0 1 0 0  0 0 0 1 0"/>
		</filter>
	</defs>
	
		<mask maskUnits="userSpaceOnUse" x="388.5" y="328" width="8.3" height="2.4" id="path-6-inside-3_18_8_00000036245231609275494740000014675356748316572861_">
		<path style="fill:#FFFFFF;filter:url(#Adobe_OpacityMaskFilter_00000030483945872451264220000006066930766359825041_);" d="
			M388.7,329.5h7.9C394,328.9,391.3,328.9,388.7,329.5z"/>
	</mask>
	<path class="st7" d="M396.6,329.5v1l0.2-2L396.6,329.5z M388.7,330.5h7.9v-2h-7.9V330.5z M396.8,328.5c-2.7-0.7-5.6-0.7-8.3,0
		l0.5,1.9c2.4-0.6,5-0.6,7.4,0L396.8,328.5z"/>
</g>
</svg>
